<svg width="140" height="30" viewBox="0 0 192 60" fill="none" xmlns="http://www.w3.org/2000/svg">
<g filter="url(#filter0_d_2_3)">
<path d="M6.27273 10.5682V2.45454H44.5V10.5682H30.25V49H20.5227V10.5682H6.27273ZM61.4602 49.6818C57.8693 49.6818 54.7784 48.9545 52.1875 47.5C49.6117 46.0303 47.6269 43.9545 46.233 41.2727C44.839 38.5758 44.142 35.3864 44.142 31.7045C44.142 28.1136 44.839 24.9621 46.233 22.25C47.6269 19.5379 49.589 17.4242 52.1193 15.9091C54.6648 14.3939 57.6496 13.6364 61.0739 13.6364C63.3769 13.6364 65.5208 14.0076 67.5057 14.75C69.5057 15.4773 71.2481 16.5758 72.733 18.0455C74.233 19.5152 75.3996 21.3636 76.233 23.5909C77.0663 25.803 77.483 28.3939 77.483 31.3636V34.0227H48.0057V28.0227H68.3693C68.3693 26.6288 68.0663 25.3939 67.4602 24.3182C66.8542 23.2424 66.0133 22.4015 64.9375 21.7955C63.8769 21.1742 62.642 20.8636 61.233 20.8636C59.7633 20.8636 58.4602 21.2045 57.3239 21.8864C56.2027 22.553 55.3239 23.4545 54.6875 24.5909C54.0511 25.7121 53.7254 26.9621 53.7102 28.3409V34.0455C53.7102 35.7727 54.0284 37.2652 54.6648 38.5227C55.3163 39.7803 56.233 40.75 57.4148 41.4318C58.5966 42.1136 59.9981 42.4545 61.6193 42.4545C62.6951 42.4545 63.6799 42.303 64.5739 42C65.4678 41.697 66.233 41.2424 66.8693 40.6364C67.5057 40.0303 67.9905 39.2879 68.3239 38.4091L77.2784 39C76.8239 41.1515 75.892 43.0303 74.483 44.6364C73.089 46.2273 71.286 47.4697 69.0739 48.3636C66.8769 49.2424 64.339 49.6818 61.4602 49.6818ZM93.483 28.8182V49H83.8011V14.0909H93.0284V20.25H93.4375C94.2102 18.2197 95.5057 16.6136 97.3239 15.4318C99.142 14.2348 101.347 13.6364 103.938 13.6364C106.362 13.6364 108.475 14.1667 110.278 15.2273C112.081 16.2879 113.483 17.803 114.483 19.7727C115.483 21.7273 115.983 24.0606 115.983 26.7727V49H106.301V28.5C106.316 26.3636 105.771 24.697 104.665 23.5C103.559 22.2879 102.036 21.6818 100.097 21.6818C98.7936 21.6818 97.642 21.9621 96.642 22.5227C95.6572 23.0833 94.8845 23.9015 94.3239 24.9773C93.7784 26.0379 93.4981 27.3182 93.483 28.8182ZM136.477 49.5682C133.826 49.5682 131.424 48.8864 129.273 47.5227C127.136 46.1439 125.439 44.1212 124.182 41.4545C122.939 38.7727 122.318 35.4848 122.318 31.5909C122.318 27.5909 122.962 24.2652 124.25 21.6136C125.538 18.947 127.25 16.9545 129.386 15.6364C131.538 14.303 133.894 13.6364 136.455 13.6364C138.409 13.6364 140.038 13.9697 141.341 14.6364C142.659 15.2879 143.72 16.1061 144.523 17.0909C145.341 18.0606 145.962 19.0152 146.386 19.9545H146.682V2.45454H156.341V49H146.795V43.4091H146.386C145.932 44.3788 145.288 45.3409 144.455 46.2955C143.636 47.2348 142.568 48.0152 141.25 48.6364C139.947 49.2576 138.356 49.5682 136.477 49.5682ZM139.545 41.8636C141.106 41.8636 142.424 41.4394 143.5 40.5909C144.591 39.7273 145.424 38.5227 146 36.9773C146.591 35.4318 146.886 33.6212 146.886 31.5455C146.886 29.4697 146.598 27.6667 146.023 26.1364C145.447 24.6061 144.614 23.4242 143.523 22.5909C142.432 21.7576 141.106 21.3409 139.545 21.3409C137.955 21.3409 136.614 21.7727 135.523 22.6364C134.432 23.5 133.606 24.697 133.045 26.2273C132.485 27.7576 132.205 29.5303 132.205 31.5455C132.205 33.5758 132.485 35.3712 133.045 36.9318C133.621 38.4773 134.447 39.6894 135.523 40.5682C136.614 41.4318 137.955 41.8636 139.545 41.8636ZM164.301 49V14.0909H173.688V20.1818H174.051C174.688 18.0152 175.756 16.3788 177.256 15.2727C178.756 14.1515 180.483 13.5909 182.438 13.5909C182.922 13.5909 183.445 13.6212 184.006 13.6818C184.566 13.7424 185.059 13.8258 185.483 13.9318V22.5227C185.028 22.3864 184.4 22.2652 183.597 22.1591C182.794 22.053 182.059 22 181.392 22C179.968 22 178.695 22.3106 177.574 22.9318C176.468 23.5379 175.589 24.3864 174.938 25.4773C174.301 26.5682 173.983 27.8258 173.983 29.25V49H164.301Z" fill="white"/>
</g>
<defs>
<filter id="filter0_d_2_3" x="0.27272" y="0.454544" width="191.21" height="59.2273" filterUnits="userSpaceOnUse" color-interpolation-filters="sRGB">
<feFlood flood-opacity="0" result="BackgroundImageFix"/>
<feColorMatrix in="SourceAlpha" type="matrix" values="0 0 0 0 0 0 0 0 0 0 0 0 0 0 0 0 0 0 127 0" result="hardAlpha"/>
<feOffset dy="4"/>
<feGaussianBlur stdDeviation="3"/>
<feComposite in2="hardAlpha" operator="out"/>
<feColorMatrix type="matrix" values="0 0 0 0 0 0 0 0 0 0 0 0 0 0 0 0 0 0 0.25 0"/>
<feBlend mode="normal" in2="BackgroundImageFix" result="effect1_dropShadow_2_3"/>
<feBlend mode="normal" in="SourceGraphic" in2="effect1_dropShadow_2_3" result="shape"/>
</filter>
</defs>
</svg>
