<svg width="128" height="40" viewBox="0 0 128 40" fill="none" xmlns="http://www.w3.org/2000/svg">
<g clip-path="url(#clip0_26_2)">
<g filter="url(#filter0_d_26_2)">
<path d="M4.18176 7.04546V1.63635H29.6666V7.04546H20.1666V32.6667H13.6817V7.04546H4.18176ZM40.9734 33.1212C38.5795 33.1212 36.5189 32.6363 34.7916 31.6667C33.0744 30.6869 31.7512 29.303 30.8219 27.5151C29.8926 25.7172 29.4279 23.5909 29.4279 21.1363C29.4279 18.7424 29.8926 16.6414 30.8219 14.8333C31.7512 13.0253 33.0593 11.6161 34.7461 10.6061C36.4431 9.59593 38.433 9.09093 40.7159 9.09093C42.2512 9.09093 43.6805 9.33839 45.0037 9.83333C46.3371 10.3182 47.4987 11.0505 48.4886 12.0303C49.4886 13.0101 50.2663 14.2424 50.8219 15.7273C51.3775 17.202 51.6553 18.9293 51.6553 20.9091V22.6818H32.0037V18.6818H45.5795C45.5795 17.7525 45.3775 16.9293 44.9734 16.2121C44.5694 15.4949 44.0088 14.9343 43.2916 14.5303C42.5845 14.1161 41.7613 13.9091 40.8219 13.9091C39.8421 13.9091 38.9734 14.1363 38.2159 14.5909C37.4684 15.0353 36.8825 15.6363 36.4583 16.3939C36.034 17.1414 35.8169 17.9747 35.8067 18.8939V22.697C35.8067 23.8485 36.0189 24.8435 36.4431 25.6818C36.8775 26.5202 37.4886 27.1667 38.2765 27.6212C39.0643 28.0757 39.9987 28.303 41.0795 28.303C41.7967 28.303 42.4532 28.202 43.0492 28C43.6451 27.798 44.1553 27.4949 44.5795 27.0909C45.0037 26.6869 45.3269 26.1919 45.5492 25.6061L51.5189 26C51.2159 27.4343 50.5946 28.6869 49.6553 29.7576C48.7259 30.8182 47.5239 31.6465 46.0492 32.2424C44.5845 32.8283 42.8926 33.1212 40.9734 33.1212ZM62.3219 19.2121V32.6667H55.8673V9.39393H62.0189V13.5H62.2916C62.8067 12.1465 63.6704 11.0757 64.8825 10.2879C66.0946 9.48986 67.5646 9.09093 69.2919 9.09093C70.9079 9.09093 72.3166 9.44446 73.5186 10.1515C74.7206 10.8586 75.6553 11.8687 76.3219 13.1818C76.9886 14.4849 77.3219 16.0404 77.3219 17.8485V32.6667H70.8673V19C70.8773 17.5757 70.5139 16.4647 69.7766 15.6667C69.0393 14.8586 68.0239 14.4545 66.7313 14.4545C65.8623 14.4545 65.0946 14.6414 64.4279 15.0151C63.7714 15.3889 63.2563 15.9343 62.8825 16.6515C62.5189 17.3586 62.332 18.2121 62.3219 19.2121ZM90.9846 33.0455C89.2173 33.0455 87.6159 32.5909 86.1819 31.6818C84.7573 30.7626 83.6259 29.4141 82.7879 27.6363C81.9593 25.8485 81.5453 23.6565 81.5453 21.0606C81.5453 18.3939 81.9746 16.1768 82.8333 14.4091C83.6919 12.6313 84.8333 11.303 86.2573 10.4243C87.6919 9.53533 89.2626 9.09093 90.9699 9.09093C92.2726 9.09093 93.3586 9.31313 94.2273 9.75759C95.1059 10.1919 95.8133 10.7374 96.3486 11.3939C96.8939 12.0404 97.3079 12.6768 97.5906 13.303H97.7879V1.63635H104.227V32.6667H97.8633V28.9394H97.5906C97.2879 29.5859 96.8586 30.2273 96.3033 30.8637C95.7573 31.4899 95.0453 32.0101 94.1666 32.4243C93.2979 32.8384 92.2373 33.0455 90.9846 33.0455ZM93.0299 27.9091C94.0706 27.9091 94.9493 27.6263 95.6666 27.0606C96.3939 26.4849 96.9493 25.6818 97.3333 24.6515C97.7273 23.6212 97.9239 22.4141 97.9239 21.0303C97.9239 19.6465 97.7319 18.4445 97.3486 17.4243C96.9646 16.4041 96.4093 15.6161 95.6819 15.0606C94.9546 14.5051 94.0706 14.2273 93.0299 14.2273C91.9699 14.2273 91.0759 14.5151 90.3486 15.0909C89.6213 15.6667 89.0706 16.4647 88.6966 17.4849C88.3233 18.5051 88.1366 19.6869 88.1366 21.0303C88.1366 22.3839 88.3233 23.5808 88.6966 24.6212C89.0806 25.6515 89.6313 26.4596 90.3486 27.0455C91.0759 27.6212 91.9699 27.9091 93.0299 27.9091ZM109.534 32.6667V9.39393H115.792V13.4545H116.034C116.459 12.0101 117.171 10.9192 118.171 10.1818C119.171 9.43433 120.322 9.06059 121.625 9.06059C121.948 9.06059 122.297 9.08079 122.671 9.12119C123.044 9.16159 123.373 9.21719 123.655 9.28786V15.0151C123.352 14.9243 122.933 14.8435 122.398 14.7727C121.863 14.702 121.373 14.6667 120.928 14.6667C119.979 14.6667 119.13 14.8737 118.383 15.2879C117.645 15.6919 117.059 16.2576 116.625 16.9849C116.201 17.7121 115.989 18.5505 115.989 19.5V32.6667H109.534Z" fill="#09347A"/>
</g>
</g>
<defs>
<filter id="filter0_d_26_2" x="0.181763" y="0.303019" width="127.474" height="39.4849" filterUnits="userSpaceOnUse" color-interpolation-filters="sRGB">
<feFlood flood-opacity="0" result="BackgroundImageFix"/>
<feColorMatrix in="SourceAlpha" type="matrix" values="0 0 0 0 0 0 0 0 0 0 0 0 0 0 0 0 0 0 127 0" result="hardAlpha"/>
<feOffset dy="2.66667"/>
<feGaussianBlur stdDeviation="2"/>
<feComposite in2="hardAlpha" operator="out"/>
<feColorMatrix type="matrix" values="0 0 0 0 0 0 0 0 0 0 0 0 0 0 0 0 0 0 0.25 0"/>
<feBlend mode="normal" in2="BackgroundImageFix" result="effect1_dropShadow_26_2"/>
<feBlend mode="normal" in="SourceGraphic" in2="effect1_dropShadow_26_2" result="shape"/>
</filter>
<clipPath id="clip0_26_2">
<rect width="128" height="40" fill="white"/>
</clipPath>
</defs>
</svg>
